<svg width="307" height="172" viewBox="0 0 307 172" fill="none" xmlns="http://www.w3.org/2000/svg">
<rect width="307" height="172" rx="20" fill="#343434"/>
<path d="M252.805 143.139C252.123 143.139 251.519 143.018 250.996 142.776C250.475 142.531 250.069 142.195 249.778 141.767C249.486 141.336 249.342 140.846 249.345 140.295C249.342 139.865 249.426 139.467 249.599 139.102C249.771 138.734 250.006 138.428 250.305 138.183C250.606 137.934 250.943 137.777 251.314 137.71V137.651C250.827 137.525 250.439 137.251 250.151 136.83C249.862 136.406 249.72 135.924 249.723 135.384C249.72 134.866 249.851 134.404 250.116 133.996C250.381 133.589 250.745 133.267 251.209 133.032C251.677 132.797 252.209 132.679 252.805 132.679C253.395 132.679 253.922 132.797 254.386 133.032C254.85 133.267 255.215 133.589 255.48 133.996C255.749 134.404 255.884 134.866 255.888 135.384C255.884 135.924 255.737 136.406 255.445 136.83C255.157 137.251 254.774 137.525 254.297 137.651V137.71C254.665 137.777 254.996 137.934 255.291 138.183C255.586 138.428 255.821 138.734 255.997 139.102C256.173 139.467 256.262 139.865 256.266 140.295C256.262 140.846 256.113 141.336 255.818 141.767C255.526 142.195 255.12 142.531 254.6 142.776C254.083 143.018 253.485 143.139 252.805 143.139ZM252.805 142.045C253.266 142.045 253.664 141.971 253.999 141.822C254.333 141.673 254.592 141.462 254.774 141.19C254.956 140.919 255.049 140.6 255.052 140.236C255.049 139.851 254.95 139.512 254.754 139.217C254.559 138.922 254.292 138.69 253.954 138.521C253.619 138.352 253.236 138.267 252.805 138.267C252.371 138.267 251.983 138.352 251.642 138.521C251.304 138.69 251.037 138.922 250.842 139.217C250.649 139.512 250.555 139.851 250.558 140.236C250.555 140.6 250.643 140.919 250.822 141.19C251.004 141.462 251.264 141.673 251.602 141.822C251.94 141.971 252.341 142.045 252.805 142.045ZM252.805 137.213C253.17 137.213 253.493 137.14 253.775 136.994C254.06 136.848 254.284 136.645 254.446 136.383C254.608 136.121 254.691 135.814 254.695 135.463C254.691 135.118 254.61 134.818 254.451 134.563C254.292 134.305 254.071 134.106 253.79 133.967C253.508 133.824 253.18 133.753 252.805 133.753C252.424 133.753 252.091 133.824 251.806 133.967C251.521 134.106 251.301 134.305 251.145 134.563C250.989 134.818 250.913 135.118 250.916 135.463C250.913 135.814 250.991 136.121 251.15 136.383C251.312 136.645 251.536 136.848 251.821 136.994C252.106 137.14 252.434 137.213 252.805 137.213ZM257.999 143L262.553 133.991V133.912H257.303V132.818H263.826V133.972L259.292 143H257.999ZM270.379 141.091V140.554C270.379 140.183 270.456 139.843 270.608 139.535C270.764 139.223 270.989 138.975 271.284 138.789C271.582 138.6 271.944 138.506 272.368 138.506C272.799 138.506 273.16 138.6 273.452 138.789C273.743 138.975 273.964 139.223 274.113 139.535C274.262 139.843 274.337 140.183 274.337 140.554V141.091C274.337 141.462 274.26 141.804 274.108 142.115C273.959 142.423 273.737 142.672 273.442 142.861C273.15 143.046 272.792 143.139 272.368 143.139C271.937 143.139 271.574 143.046 271.279 142.861C270.984 142.672 270.76 142.423 270.608 142.115C270.456 141.804 270.379 141.462 270.379 141.091ZM271.394 140.554V141.091C271.394 141.399 271.466 141.676 271.612 141.921C271.758 142.163 272.01 142.284 272.368 142.284C272.716 142.284 272.961 142.163 273.104 141.921C273.25 141.676 273.323 141.399 273.323 141.091V140.554C273.323 140.246 273.253 139.971 273.114 139.729C272.974 139.483 272.726 139.361 272.368 139.361C272.02 139.361 271.77 139.483 271.617 139.729C271.468 139.971 271.394 140.246 271.394 140.554ZM265.308 135.264V134.727C265.308 134.356 265.385 134.016 265.537 133.708C265.693 133.397 265.918 133.148 266.213 132.962C266.511 132.773 266.873 132.679 267.297 132.679C267.728 132.679 268.089 132.773 268.381 132.962C268.672 133.148 268.893 133.397 269.042 133.708C269.191 134.016 269.266 134.356 269.266 134.727V135.264C269.266 135.635 269.189 135.977 269.037 136.288C268.888 136.597 268.666 136.845 268.371 137.034C268.079 137.22 267.721 137.312 267.297 137.312C266.866 137.312 266.503 137.22 266.208 137.034C265.913 136.845 265.689 136.597 265.537 136.288C265.385 135.977 265.308 135.635 265.308 135.264ZM266.323 134.727V135.264C266.323 135.572 266.395 135.849 266.541 136.094C266.687 136.336 266.939 136.457 267.297 136.457C267.645 136.457 267.89 136.336 268.033 136.094C268.179 135.849 268.251 135.572 268.251 135.264V134.727C268.251 134.419 268.182 134.144 268.043 133.902C267.903 133.657 267.655 133.534 267.297 133.534C266.949 133.534 266.699 133.657 266.546 133.902C266.397 134.144 266.323 134.419 266.323 134.727ZM265.686 143L272.686 132.818H273.82L266.82 143H265.686Z" fill="white"/>
<ellipse cx="46.8384" cy="56.5" rx="19.9411" ry="21.5" fill="#D9D9D9"/>
<rect x="82.5469" y="69" width="193.846" height="8" rx="4" fill="#D9D9D9"/>
<rect x="83" y="89" width="87" height="8" rx="4" fill="#D9D9D9"/>
<rect x="27" y="134" width="212" height="8" rx="4" fill="#D9D9D9" fill-opacity="0.3"/>
<rect x="29" y="134" width="161" height="8" rx="4" fill="#D9D9D9"/>
<path d="M85.0251 41.9091H86.9171L91.366 52.7756H91.5194L95.9683 41.9091H97.8603V55H96.3773V45.054H96.2495L92.1586 55H90.7268L86.6359 45.054H86.508V55H85.0251V41.9091ZM103.093 55.2301C102.471 55.2301 101.907 55.1129 101.4 54.8786C100.892 54.6399 100.49 54.2969 100.191 53.8494C99.8931 53.3977 99.744 52.8523 99.744 52.2131C99.744 51.6506 99.8548 51.1946 100.076 50.8452C100.298 50.4915 100.594 50.2145 100.965 50.0142C101.336 49.8139 101.745 49.6648 102.192 49.5668C102.644 49.4645 103.098 49.3835 103.554 49.3239C104.15 49.2472 104.634 49.1896 105.005 49.1513C105.38 49.1087 105.652 49.0384 105.823 48.9403C105.998 48.8423 106.085 48.6719 106.085 48.429V48.3778C106.085 47.7472 105.912 47.2571 105.567 46.9077C105.226 46.5582 104.708 46.3835 104.014 46.3835C103.294 46.3835 102.729 46.5412 102.32 46.8565C101.911 47.1719 101.623 47.5085 101.457 47.8665L100.025 47.3551C100.281 46.7585 100.622 46.294 101.048 45.9616C101.478 45.625 101.947 45.3906 102.454 45.2585C102.966 45.1222 103.468 45.054 103.963 45.054C104.278 45.054 104.64 45.0923 105.049 45.169C105.463 45.2415 105.861 45.3928 106.245 45.6229C106.632 45.853 106.954 46.2003 107.21 46.6648C107.466 47.1293 107.593 47.7514 107.593 48.5312V55H106.085V53.6705H106.008C105.906 53.8835 105.735 54.1115 105.497 54.3544C105.258 54.5973 104.941 54.804 104.544 54.9744C104.148 55.1449 103.664 55.2301 103.093 55.2301ZM103.324 53.875C103.92 53.875 104.423 53.7578 104.832 53.5234C105.245 53.2891 105.556 52.9865 105.765 52.6158C105.978 52.245 106.085 51.8551 106.085 51.446V50.0653C106.021 50.142 105.88 50.2124 105.663 50.2763C105.45 50.3359 105.203 50.3892 104.922 50.4361C104.645 50.4787 104.374 50.517 104.11 50.5511C103.85 50.581 103.639 50.6065 103.477 50.6278C103.085 50.679 102.718 50.7621 102.377 50.8771C102.041 50.9879 101.768 51.1562 101.559 51.3821C101.355 51.6037 101.252 51.9062 101.252 52.2898C101.252 52.8139 101.446 53.2102 101.834 53.4787C102.226 53.7429 102.723 53.875 103.324 53.875ZM111.225 49.0938V55H109.717V45.1818H111.174V46.7159H111.302C111.532 46.2173 111.882 45.8168 112.35 45.5142C112.819 45.2074 113.424 45.054 114.166 45.054C114.83 45.054 115.412 45.1903 115.911 45.4631C116.409 45.7315 116.797 46.1406 117.074 46.6903C117.351 47.2358 117.49 47.9261 117.49 48.7614V55H115.981V48.8636C115.981 48.0923 115.781 47.4915 115.38 47.0611C114.98 46.6264 114.43 46.4091 113.731 46.4091C113.249 46.4091 112.819 46.5135 112.44 46.7223C112.065 46.9311 111.769 47.2358 111.551 47.6364C111.334 48.0369 111.225 48.5227 111.225 49.0938ZM122.505 55.2301C121.883 55.2301 121.318 55.1129 120.811 54.8786C120.304 54.6399 119.902 54.2969 119.603 53.8494C119.305 53.3977 119.156 52.8523 119.156 52.2131C119.156 51.6506 119.267 51.1946 119.488 50.8452C119.71 50.4915 120.006 50.2145 120.377 50.0142C120.747 49.8139 121.157 49.6648 121.604 49.5668C122.056 49.4645 122.51 49.3835 122.966 49.3239C123.562 49.2472 124.046 49.1896 124.416 49.1513C124.791 49.1087 125.064 49.0384 125.235 48.9403C125.409 48.8423 125.497 48.6719 125.497 48.429V48.3778C125.497 47.7472 125.324 47.2571 124.979 46.9077C124.638 46.5582 124.12 46.3835 123.426 46.3835C122.706 46.3835 122.141 46.5412 121.732 46.8565C121.323 47.1719 121.035 47.5085 120.869 47.8665L119.437 47.3551C119.693 46.7585 120.034 46.294 120.46 45.9616C120.89 45.625 121.359 45.3906 121.866 45.2585C122.377 45.1222 122.88 45.054 123.375 45.054C123.69 45.054 124.052 45.0923 124.461 45.169C124.875 45.2415 125.273 45.3928 125.657 45.6229C126.044 45.853 126.366 46.2003 126.622 46.6648C126.877 47.1293 127.005 47.7514 127.005 48.5312V55H125.497V53.6705H125.42C125.318 53.8835 125.147 54.1115 124.909 54.3544C124.67 54.5973 124.353 54.804 123.956 54.9744C123.56 55.1449 123.076 55.2301 122.505 55.2301ZM122.735 53.875C123.332 53.875 123.835 53.7578 124.244 53.5234C124.657 53.2891 124.968 52.9865 125.177 52.6158C125.39 52.245 125.497 51.8551 125.497 51.446V50.0653C125.433 50.142 125.292 50.2124 125.075 50.2763C124.862 50.3359 124.615 50.3892 124.333 50.4361C124.056 50.4787 123.786 50.517 123.522 50.5511C123.262 50.581 123.051 50.6065 122.889 50.6278C122.497 50.679 122.13 50.7621 121.789 50.8771C121.453 50.9879 121.18 51.1562 120.971 51.3821C120.767 51.6037 120.664 51.9062 120.664 52.2898C120.664 52.8139 120.858 53.2102 121.246 53.4787C121.638 53.7429 122.135 53.875 122.735 53.875ZM133.092 58.8864C132.363 58.8864 131.737 58.7926 131.212 58.6051C130.688 58.4219 130.252 58.179 129.902 57.8764C129.557 57.5781 129.282 57.2585 129.078 56.9176L130.279 56.0739C130.416 56.2528 130.588 56.4574 130.797 56.6875C131.006 56.9219 131.291 57.1243 131.654 57.2947C132.02 57.4695 132.499 57.5568 133.092 57.5568C133.884 57.5568 134.538 57.3651 135.054 56.9815C135.57 56.598 135.828 55.9972 135.828 55.179V53.1847H135.7C135.589 53.3636 135.431 53.5852 135.227 53.8494C135.026 54.1094 134.737 54.3416 134.357 54.5462C133.982 54.7464 133.475 54.8466 132.836 54.8466C132.043 54.8466 131.332 54.6591 130.701 54.2841C130.075 53.9091 129.578 53.3636 129.212 52.6477C128.85 51.9318 128.668 51.0625 128.668 50.0398C128.668 49.0341 128.845 48.1584 129.199 47.4126C129.553 46.6626 130.045 46.0831 130.676 45.674C131.306 45.2607 132.035 45.054 132.862 45.054C133.501 45.054 134.008 45.1605 134.383 45.3736C134.762 45.5824 135.052 45.821 135.252 46.0895C135.457 46.3537 135.614 46.571 135.725 46.7415H135.879V45.1818H137.336V55.2812C137.336 56.125 137.144 56.8111 136.761 57.3395C136.381 57.8722 135.87 58.2621 135.227 58.5092C134.587 58.7607 133.876 58.8864 133.092 58.8864ZM133.041 53.4915C133.646 53.4915 134.157 53.353 134.575 53.076C134.992 52.799 135.31 52.4006 135.527 51.8807C135.744 51.3608 135.853 50.7386 135.853 50.0142C135.853 49.3068 135.747 48.6825 135.533 48.1413C135.32 47.6001 135.005 47.1761 134.587 46.8693C134.17 46.5625 133.654 46.4091 133.041 46.4091C132.401 46.4091 131.869 46.571 131.443 46.8949C131.021 47.2187 130.703 47.6534 130.49 48.1989C130.281 48.7443 130.177 49.3494 130.177 50.0142C130.177 50.696 130.283 51.299 130.497 51.8232C130.714 52.343 131.033 52.7521 131.455 53.0504C131.881 53.3445 132.41 53.4915 133.041 53.4915ZM143.584 55.2045C142.638 55.2045 141.822 54.9957 141.136 54.5781C140.454 54.1562 139.928 53.5682 139.557 52.8139C139.19 52.0554 139.007 51.1733 139.007 50.1676C139.007 49.1619 139.19 48.2756 139.557 47.5085C139.928 46.7372 140.443 46.1364 141.104 45.706C141.769 45.2713 142.544 45.054 143.43 45.054C143.942 45.054 144.447 45.1392 144.945 45.3097C145.444 45.4801 145.898 45.7571 146.307 46.1406C146.716 46.5199 147.042 47.0227 147.285 47.6491C147.528 48.2756 147.649 49.0469 147.649 49.9631V50.6023H140.081V49.2983H146.115C146.115 48.7443 146.004 48.25 145.783 47.8153C145.565 47.3807 145.254 47.0376 144.85 46.7862C144.449 46.5348 143.976 46.4091 143.43 46.4091C142.83 46.4091 142.31 46.5582 141.871 46.8565C141.436 47.1506 141.102 47.5341 140.867 48.0071C140.633 48.4801 140.516 48.9872 140.516 49.5284V50.3977C140.516 51.1392 140.644 51.7678 140.899 52.2834C141.159 52.7947 141.519 53.1847 141.979 53.4531C142.44 53.7173 142.975 53.8494 143.584 53.8494C143.98 53.8494 144.338 53.794 144.658 53.6832C144.982 53.5682 145.261 53.3977 145.495 53.1719C145.729 52.9418 145.911 52.6562 146.038 52.3153L147.496 52.7244C147.342 53.2188 147.085 53.6534 146.722 54.0284C146.36 54.3991 145.913 54.6889 145.38 54.8977C144.847 55.1023 144.249 55.2045 143.584 55.2045ZM149.314 55V45.1818H150.771V46.7159H150.899C151.104 46.1918 151.434 45.7848 151.89 45.495C152.346 45.201 152.894 45.054 153.533 45.054C154.18 45.054 154.72 45.201 155.15 45.495C155.585 45.7848 155.923 46.1918 156.166 46.7159H156.269C156.52 46.2088 156.897 45.8061 157.4 45.5078C157.903 45.2053 158.506 45.054 159.209 45.054C160.087 45.054 160.805 45.3288 161.363 45.8786C161.921 46.424 162.2 47.2741 162.2 48.429V55H160.692V48.429C160.692 47.7045 160.494 47.1868 160.097 46.8757C159.701 46.5646 159.234 46.4091 158.697 46.4091C158.007 46.4091 157.472 46.6179 157.093 47.0355C156.714 47.4489 156.524 47.973 156.524 48.608V55H154.99V48.2756C154.99 47.7173 154.809 47.2678 154.447 46.9268C154.085 46.5817 153.618 46.4091 153.047 46.4091C152.655 46.4091 152.288 46.5135 151.947 46.7223C151.611 46.9311 151.338 47.2209 151.129 47.5916C150.925 47.9581 150.822 48.3821 150.822 48.8636V55H149.314ZM168.445 55.2045C167.499 55.2045 166.683 54.9957 165.997 54.5781C165.315 54.1562 164.789 53.5682 164.418 52.8139C164.052 52.0554 163.868 51.1733 163.868 50.1676C163.868 49.1619 164.052 48.2756 164.418 47.5085C164.789 46.7372 165.304 46.1364 165.965 45.706C166.63 45.2713 167.405 45.054 168.292 45.054C168.803 45.054 169.308 45.1392 169.806 45.3097C170.305 45.4801 170.759 45.7571 171.168 46.1406C171.577 46.5199 171.903 47.0227 172.146 47.6491C172.389 48.2756 172.51 49.0469 172.51 49.9631V50.6023H164.942V49.2983H170.976C170.976 48.7443 170.865 48.25 170.644 47.8153C170.427 47.3807 170.115 47.0376 169.711 46.7862C169.31 46.5348 168.837 46.4091 168.292 46.4091C167.691 46.4091 167.171 46.5582 166.732 46.8565C166.297 47.1506 165.963 47.5341 165.728 48.0071C165.494 48.4801 165.377 48.9872 165.377 49.5284V50.3977C165.377 51.1392 165.505 51.7678 165.76 52.2834C166.02 52.7947 166.38 53.1847 166.841 53.4531C167.301 53.7173 167.836 53.8494 168.445 53.8494C168.841 53.8494 169.199 53.794 169.519 53.6832C169.843 53.5682 170.122 53.3977 170.356 53.1719C170.591 52.9418 170.772 52.6562 170.9 52.3153L172.357 52.7244C172.203 53.2188 171.946 53.6534 171.583 54.0284C171.221 54.3991 170.774 54.6889 170.241 54.8977C169.708 55.1023 169.11 55.2045 168.445 55.2045ZM175.684 49.0938V55H174.175V45.1818H175.632V46.7159H175.76C175.99 46.2173 176.34 45.8168 176.809 45.5142C177.277 45.2074 177.882 45.054 178.624 45.054C179.289 45.054 179.87 45.1903 180.369 45.4631C180.868 45.7315 181.255 46.1406 181.532 46.6903C181.809 47.2358 181.948 47.9261 181.948 48.7614V55H180.439V48.8636C180.439 48.0923 180.239 47.4915 179.838 47.0611C179.438 46.6264 178.888 46.4091 178.189 46.4091C177.708 46.4091 177.277 46.5135 176.898 46.7223C176.523 46.9311 176.227 47.2358 176.01 47.6364C175.792 48.0369 175.684 48.5227 175.684 49.0938ZM188.344 45.1818V46.4602H183.256V45.1818H188.344ZM184.739 42.8295H186.248V52.1875C186.248 52.6136 186.309 52.9332 186.433 53.1463C186.561 53.3551 186.723 53.4957 186.919 53.5682C187.119 53.6364 187.33 53.6705 187.552 53.6705C187.718 53.6705 187.854 53.6619 187.961 53.6449C188.067 53.6236 188.152 53.6065 188.216 53.5938L188.523 54.9489C188.421 54.9872 188.278 55.0256 188.095 55.0639C187.912 55.1065 187.679 55.1278 187.398 55.1278C186.972 55.1278 186.554 55.0362 186.145 54.853C185.741 54.6697 185.404 54.3906 185.135 54.0156C184.871 53.6406 184.739 53.1676 184.739 52.5966V42.8295ZM201.37 47.3807L200.015 47.7642C199.93 47.5384 199.804 47.3189 199.638 47.1058C199.476 46.8885 199.255 46.7095 198.973 46.5689C198.692 46.4283 198.332 46.358 197.893 46.358C197.292 46.358 196.792 46.4964 196.391 46.7734C195.995 47.0462 195.797 47.3935 195.797 47.8153C195.797 48.1903 195.933 48.4865 196.206 48.7038C196.478 48.9212 196.905 49.1023 197.484 49.2472L198.941 49.6051C199.819 49.8182 200.473 50.1442 200.904 50.5831C201.334 51.0178 201.549 51.5781 201.549 52.2642C201.549 52.8267 201.388 53.3295 201.064 53.7727C200.744 54.2159 200.297 54.5653 199.721 54.821C199.146 55.0767 198.477 55.2045 197.714 55.2045C196.713 55.2045 195.884 54.9872 195.228 54.5526C194.571 54.1179 194.156 53.483 193.981 52.6477L195.413 52.2898C195.549 52.8182 195.807 53.2145 196.187 53.4787C196.57 53.7429 197.071 53.875 197.689 53.875C198.392 53.875 198.95 53.7259 199.363 53.4276C199.781 53.125 199.99 52.7628 199.99 52.3409C199.99 52 199.87 51.7145 199.632 51.4844C199.393 51.25 199.027 51.0753 198.532 50.9602L196.896 50.5767C195.997 50.3636 195.336 50.0334 194.914 49.5859C194.497 49.1342 194.288 48.5696 194.288 47.892C194.288 47.3381 194.444 46.848 194.755 46.4219C195.07 45.9957 195.498 45.6612 196.039 45.4183C196.585 45.1754 197.203 45.054 197.893 45.054C198.865 45.054 199.628 45.267 200.182 45.6932C200.74 46.1193 201.136 46.6818 201.37 47.3807ZM209.378 50.9858V45.1818H210.886V55H209.378V53.3381H209.275C209.045 53.8366 208.687 54.2607 208.202 54.6101C207.716 54.9553 207.102 55.1278 206.361 55.1278C205.747 55.1278 205.202 54.9936 204.724 54.7251C204.247 54.4524 203.872 54.0433 203.599 53.4979C203.327 52.9482 203.19 52.2557 203.19 51.4205V45.1818H204.699V51.3182C204.699 52.0341 204.899 52.6051 205.3 53.0312C205.704 53.4574 206.22 53.6705 206.846 53.6705C207.221 53.6705 207.603 53.5746 207.991 53.3828C208.383 53.1911 208.711 52.897 208.975 52.5007C209.243 52.1044 209.378 51.5994 209.378 50.9858ZM213.019 55V45.1818H214.528V55H213.019ZM213.786 43.5455C213.492 43.5455 213.239 43.4453 213.026 43.245C212.817 43.0447 212.712 42.804 212.712 42.5227C212.712 42.2415 212.817 42.0007 213.026 41.8004C213.239 41.6001 213.492 41.5 213.786 41.5C214.08 41.5 214.332 41.6001 214.541 41.8004C214.754 42.0007 214.86 42.2415 214.86 42.5227C214.86 42.804 214.754 43.0447 214.541 43.245C214.332 43.4453 214.08 43.5455 213.786 43.5455ZM220.931 45.1818V46.4602H215.842V45.1818H220.931ZM217.325 42.8295H218.834V52.1875C218.834 52.6136 218.896 52.9332 219.019 53.1463C219.147 53.3551 219.309 53.4957 219.505 53.5682C219.705 53.6364 219.916 53.6705 220.138 53.6705C220.304 53.6705 220.441 53.6619 220.547 53.6449C220.654 53.6236 220.739 53.6065 220.803 53.5938L221.11 54.9489C221.007 54.9872 220.865 55.0256 220.681 55.0639C220.498 55.1065 220.266 55.1278 219.985 55.1278C219.558 55.1278 219.141 55.0362 218.732 54.853C218.327 54.6697 217.99 54.3906 217.722 54.0156C217.458 53.6406 217.325 53.1676 217.325 52.5966V42.8295ZM226.581 55.2045C225.635 55.2045 224.819 54.9957 224.133 54.5781C223.451 54.1562 222.924 53.5682 222.554 52.8139C222.187 52.0554 222.004 51.1733 222.004 50.1676C222.004 49.1619 222.187 48.2756 222.554 47.5085C222.924 46.7372 223.44 46.1364 224.101 45.706C224.765 45.2713 225.541 45.054 226.427 45.054C226.939 45.054 227.444 45.1392 227.942 45.3097C228.441 45.4801 228.895 45.7571 229.304 46.1406C229.713 46.5199 230.039 47.0227 230.282 47.6491C230.525 48.2756 230.646 49.0469 230.646 49.9631V50.6023H223.078V49.2983H229.112C229.112 48.7443 229.001 48.25 228.78 47.8153C228.562 47.3807 228.251 47.0376 227.846 46.7862C227.446 46.5348 226.973 46.4091 226.427 46.4091C225.826 46.4091 225.307 46.5582 224.868 46.8565C224.433 47.1506 224.099 47.5341 223.864 48.0071C223.63 48.4801 223.513 48.9872 223.513 49.5284V50.3977C223.513 51.1392 223.64 51.7678 223.896 52.2834C224.156 52.7947 224.516 53.1847 224.976 53.4531C225.437 53.7173 225.971 53.8494 226.581 53.8494C226.977 53.8494 227.335 53.794 227.655 53.6832C227.978 53.5682 228.258 53.3977 228.492 53.1719C228.726 52.9418 228.907 52.6562 229.035 52.3153L230.493 52.7244C230.339 53.2188 230.081 53.6534 229.719 54.0284C229.357 54.3991 228.91 54.6889 228.377 54.8977C227.844 55.1023 227.246 55.2045 226.581 55.2045Z" fill="#D9D9D9"/>
</svg>
