<svg width="331" height="260" viewBox="0 0 331 260" fill="none" xmlns="http://www.w3.org/2000/svg">
<rect width="331" height="260" rx="20" fill="#343434"/>
<circle cx="50.5" cy="56.5" r="21.5" fill="#D9D9D9"/>
<rect x="223.5" y="209.5" width="78" height="25" rx="12.5" fill="white" fill-opacity="0.02"/>
<rect x="223.5" y="209.5" width="78" height="25" rx="12.5" stroke="#D9D9D9"/>
<path d="M247.585 229V215.909H249.17V221.739H256.151V215.909H257.736V229H256.151V223.145H249.17V229H247.585ZM260.075 229V219.182H261.583V229H260.075ZM260.842 217.545C260.548 217.545 260.294 217.445 260.081 217.245C259.872 217.045 259.768 216.804 259.768 216.523C259.768 216.241 259.872 216.001 260.081 215.8C260.294 215.6 260.548 215.5 260.842 215.5C261.136 215.5 261.387 215.6 261.596 215.8C261.809 216.001 261.916 216.241 261.916 216.523C261.916 216.804 261.809 217.045 261.596 217.245C261.387 217.445 261.136 217.545 260.842 217.545ZM263.716 229V219.182H265.174V220.665H265.276C265.455 220.179 265.779 219.785 266.248 219.482C266.716 219.18 267.245 219.028 267.833 219.028C267.944 219.028 268.082 219.031 268.248 219.035C268.415 219.039 268.54 219.045 268.625 219.054V220.588C268.574 220.575 268.457 220.556 268.274 220.531C268.095 220.501 267.905 220.486 267.705 220.486C267.228 220.486 266.802 220.586 266.427 220.786C266.056 220.982 265.762 221.255 265.545 221.604C265.331 221.95 265.225 222.344 265.225 222.787V229H263.716ZM273.601 229.205C272.655 229.205 271.839 228.996 271.153 228.578C270.471 228.156 269.945 227.568 269.574 226.814C269.208 226.055 269.025 225.173 269.025 224.168C269.025 223.162 269.208 222.276 269.574 221.509C269.945 220.737 270.461 220.136 271.121 219.706C271.786 219.271 272.562 219.054 273.448 219.054C273.959 219.054 274.464 219.139 274.963 219.31C275.461 219.48 275.915 219.757 276.324 220.141C276.733 220.52 277.059 221.023 277.302 221.649C277.545 222.276 277.667 223.047 277.667 223.963V224.602H270.098V223.298H276.133C276.133 222.744 276.022 222.25 275.8 221.815C275.583 221.381 275.272 221.038 274.867 220.786C274.466 220.535 273.993 220.409 273.448 220.409C272.847 220.409 272.327 220.558 271.888 220.857C271.454 221.151 271.119 221.534 270.885 222.007C270.65 222.48 270.533 222.987 270.533 223.528V224.398C270.533 225.139 270.661 225.768 270.917 226.283C271.177 226.795 271.537 227.185 271.997 227.453C272.457 227.717 272.992 227.849 273.601 227.849C273.998 227.849 274.356 227.794 274.675 227.683C274.999 227.568 275.278 227.398 275.513 227.172C275.747 226.942 275.928 226.656 276.056 226.315L277.513 226.724C277.36 227.219 277.102 227.653 276.74 228.028C276.378 228.399 275.93 228.689 275.397 228.898C274.865 229.102 274.266 229.205 273.601 229.205Z" fill="#D9D9D9"/>
<g clip-path="url(#clip0_2904_1952)">
<path d="M41 184.75L34.828 187.995L36.007 181.122L31.007 176.255L37.907 175.255L40.993 169.002L44.079 175.255L50.979 176.255L45.979 181.122L47.158 187.995L41 184.75Z" fill="#ED9F41" stroke="#ED9F41" stroke-width="2" stroke-linecap="round" stroke-linejoin="round"/>
</g>
<path d="M62.1783 183.315V182.011L67.9311 172.909H68.8772V174.929H68.238L63.8914 181.807V181.909H71.6385V183.315H62.1783ZM68.3402 186V182.919V182.312V172.909H69.8488V186H68.3402ZM73.9137 186.102C73.5984 186.102 73.3278 185.989 73.1019 185.763C72.8761 185.538 72.7631 185.267 72.7631 184.952C72.7631 184.636 72.8761 184.366 73.1019 184.14C73.3278 183.914 73.5984 183.801 73.9137 183.801C74.229 183.801 74.4996 183.914 74.7255 184.14C74.9513 184.366 75.0643 184.636 75.0643 184.952C75.0643 185.161 75.011 185.352 74.9045 185.527C74.8022 185.702 74.6637 185.842 74.489 185.949C74.3185 186.051 74.1268 186.102 73.9137 186.102ZM81.1603 172.73C81.6972 172.734 82.2342 172.837 82.7711 173.037C83.308 173.237 83.7981 173.57 84.2413 174.034C84.6845 174.494 85.0403 175.123 85.3087 175.92C85.5772 176.717 85.7114 177.716 85.7114 178.918C85.7114 180.081 85.6006 181.114 85.3791 182.018C85.1617 182.917 84.8464 183.675 84.433 184.293C84.0239 184.911 83.5254 185.38 82.9373 185.7C82.3535 186.019 81.693 186.179 80.9558 186.179C80.2228 186.179 79.5687 186.034 78.9934 185.744C78.4224 185.45 77.9536 185.043 77.5872 184.523C77.2249 183.999 76.9927 183.392 76.8904 182.702H78.4501C78.5907 183.303 78.8698 183.799 79.2874 184.191C79.7093 184.579 80.2654 184.773 80.9558 184.773C81.9657 184.773 82.7626 184.332 83.3464 183.45C83.9345 182.567 84.2285 181.321 84.2285 179.71H84.1262C83.8876 180.068 83.6042 180.377 83.2761 180.637C82.9479 180.897 82.5836 181.097 82.183 181.238C81.7825 181.379 81.3563 181.449 80.9046 181.449C80.1546 181.449 79.4664 181.263 78.84 180.893C78.2178 180.518 77.7193 180.004 77.3443 179.352C76.9735 178.696 76.7881 177.946 76.7881 177.102C76.7881 176.301 76.9671 175.568 77.3251 174.903C77.6873 174.234 78.1944 173.702 78.8464 173.305C79.5026 172.909 80.2739 172.717 81.1603 172.73ZM81.1603 174.136C80.6234 174.136 80.1397 174.271 79.7093 174.539C79.2832 174.803 78.9444 175.161 78.693 175.613C78.4458 176.06 78.3222 176.557 78.3222 177.102C78.3222 177.648 78.4416 178.144 78.6802 178.592C78.9231 179.035 79.2533 179.388 79.671 179.653C80.0928 179.913 80.5722 180.043 81.1092 180.043C81.514 180.043 81.8911 179.964 82.2406 179.806C82.59 179.644 82.8947 179.425 83.1546 179.148C83.4188 178.866 83.6255 178.549 83.7747 178.195C83.9238 177.837 83.9984 177.464 83.9984 177.077C83.9984 176.565 83.8748 176.086 83.6276 175.638C83.3847 175.191 83.0481 174.829 82.6177 174.552C82.1916 174.275 81.7058 174.136 81.1603 174.136Z" fill="white"/>
<rect x="89" y="43" width="112" height="8" rx="4" fill="#D9D9D9"/>
<rect x="89" y="64" width="209" height="8" rx="4" fill="#D9D9D9"/>
<rect x="29" y="119" width="155" height="32" rx="16" fill="#D9D9D9" fill-opacity="0.2"/>
<path d="M58.4382 142V128.909H63.1044C64.1229 128.909 64.9666 129.094 65.6357 129.465C66.3047 129.836 66.8054 130.343 67.1378 130.987C67.4702 131.626 67.6364 132.346 67.6364 133.147C67.6364 133.952 67.468 134.677 67.1314 135.32C66.799 135.96 66.2962 136.467 65.6229 136.842C64.9538 137.212 64.1122 137.398 63.098 137.398H59.8892V135.723H62.919C63.5625 135.723 64.0845 135.612 64.4851 135.391C64.8857 135.165 65.1797 134.858 65.3672 134.47C65.5547 134.082 65.6484 133.641 65.6484 133.147C65.6484 132.653 65.5547 132.214 65.3672 131.83C65.1797 131.447 64.8835 131.146 64.4787 130.929C64.0781 130.712 63.5497 130.603 62.8935 130.603H60.4134V142H58.4382ZM69.1685 142V132.182H71.0158V133.741H71.118C71.297 133.213 71.6124 132.798 72.0641 132.495C72.52 132.188 73.0357 132.035 73.6109 132.035C73.7303 132.035 73.8709 132.039 74.0328 132.048C74.199 132.056 74.329 132.067 74.4227 132.08V133.908C74.346 133.886 74.2097 133.863 74.0136 133.837C73.8176 133.808 73.6216 133.793 73.4256 133.793C72.9739 133.793 72.5712 133.888 72.2175 134.08C71.868 134.268 71.5911 134.53 71.3865 134.866C71.182 135.199 71.0797 135.578 71.0797 136.004V142H69.1685ZM79.2308 142.198C78.3103 142.198 77.507 141.987 76.821 141.565C76.1349 141.143 75.6022 140.553 75.223 139.795C74.8437 139.036 74.6541 138.15 74.6541 137.136C74.6541 136.117 74.8437 135.227 75.223 134.464C75.6022 133.701 76.1349 133.109 76.821 132.687C77.507 132.265 78.3103 132.054 79.2308 132.054C80.1512 132.054 80.9545 132.265 81.6406 132.687C82.3266 133.109 82.8593 133.701 83.2386 134.464C83.6178 135.227 83.8075 136.117 83.8075 137.136C83.8075 138.15 83.6178 139.036 83.2386 139.795C82.8593 140.553 82.3266 141.143 81.6406 141.565C80.9545 141.987 80.1512 142.198 79.2308 142.198ZM79.2372 140.594C79.8338 140.594 80.3281 140.436 80.7201 140.121C81.1122 139.805 81.4019 139.386 81.5894 138.862C81.7812 138.337 81.8771 137.76 81.8771 137.129C81.8771 136.503 81.7812 135.928 81.5894 135.403C81.4019 134.875 81.1122 134.451 80.7201 134.131C80.3281 133.812 79.8338 133.652 79.2372 133.652C78.6363 133.652 78.1377 133.812 77.7414 134.131C77.3494 134.451 77.0575 134.875 76.8657 135.403C76.6782 135.928 76.5845 136.503 76.5845 137.129C76.5845 137.76 76.6782 138.337 76.8657 138.862C77.0575 139.386 77.3494 139.805 77.7414 140.121C78.1377 140.436 78.6363 140.594 79.2372 140.594ZM89.9834 132.182V133.716H84.4351V132.182H89.9834ZM85.9564 142V131.044C85.9564 130.43 86.0906 129.921 86.3591 129.516C86.6276 129.107 86.9834 128.803 87.4266 128.602C87.8698 128.398 88.3513 128.295 88.8712 128.295C89.2547 128.295 89.5828 128.327 89.8556 128.391C90.1283 128.451 90.3307 128.506 90.4628 128.558L90.0154 130.104C89.9259 130.079 89.8108 130.049 89.6702 130.015C89.5296 129.977 89.3591 129.957 89.1588 129.957C88.6943 129.957 88.362 130.072 88.1617 130.303C87.9656 130.533 87.8676 130.865 87.8676 131.3V142H85.9564ZM95.1702 142.198C94.2028 142.198 93.3697 141.991 92.6709 141.578C91.9763 141.161 91.4393 140.575 91.0601 139.82C90.6851 139.062 90.4976 138.173 90.4976 137.155C90.4976 136.149 90.6851 135.263 91.0601 134.496C91.4393 133.729 91.9677 133.13 92.6453 132.7C93.3271 132.269 94.124 132.054 95.0359 132.054C95.5899 132.054 96.1268 132.146 96.6467 132.329C97.1666 132.512 97.6332 132.8 98.0466 133.192C98.4599 133.584 98.7859 134.093 99.0246 134.719C99.2632 135.342 99.3825 136.098 99.3825 136.989V137.666H91.5778V136.234H97.5097C97.5097 135.732 97.4074 135.286 97.2028 134.898C96.9983 134.506 96.7106 134.197 96.3399 133.972C95.9734 133.746 95.543 133.633 95.0487 133.633C94.5118 133.633 94.043 133.765 93.6425 134.029C93.2462 134.289 92.9393 134.63 92.722 135.052C92.5089 135.469 92.4024 135.923 92.4024 136.413V137.532C92.4024 138.188 92.5175 138.746 92.7476 139.207C92.982 139.667 93.3079 140.018 93.7256 140.261C94.1432 140.5 94.6311 140.619 95.1893 140.619C95.5516 140.619 95.8818 140.568 96.1801 140.466C96.4784 140.359 96.7362 140.202 96.9535 139.993C97.1709 139.784 97.3371 139.526 97.4521 139.219L99.2611 139.545C99.1162 140.078 98.8562 140.545 98.4812 140.945C98.1105 141.342 97.6439 141.651 97.0814 141.872C96.5231 142.089 95.8861 142.198 95.1702 142.198ZM108.23 134.579L106.498 134.886C106.426 134.664 106.311 134.453 106.153 134.253C106 134.053 105.791 133.888 105.526 133.761C105.262 133.633 104.932 133.569 104.536 133.569C103.995 133.569 103.543 133.69 103.181 133.933C102.818 134.172 102.637 134.481 102.637 134.86C102.637 135.188 102.759 135.452 103.002 135.653C103.245 135.853 103.637 136.017 104.178 136.145L105.737 136.503C106.641 136.712 107.314 137.033 107.757 137.468C108.2 137.903 108.422 138.467 108.422 139.162C108.422 139.75 108.252 140.274 107.911 140.734C107.574 141.19 107.103 141.548 106.498 141.808C105.897 142.068 105.2 142.198 104.408 142.198C103.308 142.198 102.411 141.964 101.717 141.495C101.022 141.022 100.596 140.351 100.438 139.482L102.286 139.2C102.401 139.682 102.637 140.046 102.995 140.293C103.353 140.536 103.82 140.658 104.395 140.658C105.022 140.658 105.522 140.528 105.897 140.268C106.272 140.004 106.46 139.682 106.46 139.303C106.46 138.996 106.345 138.738 106.115 138.529C105.889 138.32 105.541 138.163 105.073 138.056L103.411 137.692C102.495 137.483 101.817 137.151 101.378 136.695C100.943 136.239 100.726 135.661 100.726 134.962C100.726 134.383 100.888 133.876 101.212 133.441C101.536 133.006 101.983 132.668 102.554 132.425C103.125 132.178 103.779 132.054 104.517 132.054C105.578 132.054 106.413 132.284 107.022 132.744C107.632 133.2 108.034 133.812 108.23 134.579ZM117.251 134.579L115.518 134.886C115.446 134.664 115.331 134.453 115.173 134.253C115.02 134.053 114.811 133.888 114.547 133.761C114.283 133.633 113.952 133.569 113.556 133.569C113.015 133.569 112.563 133.69 112.201 133.933C111.839 134.172 111.658 134.481 111.658 134.86C111.658 135.188 111.779 135.452 112.022 135.653C112.265 135.853 112.657 136.017 113.198 136.145L114.758 136.503C115.661 136.712 116.335 137.033 116.778 137.468C117.221 137.903 117.442 138.467 117.442 139.162C117.442 139.75 117.272 140.274 116.931 140.734C116.594 141.19 116.124 141.548 115.518 141.808C114.918 142.068 114.221 142.198 113.428 142.198C112.329 142.198 111.432 141.964 110.737 141.495C110.043 141.022 109.616 140.351 109.459 139.482L111.306 139.2C111.421 139.682 111.658 140.046 112.016 140.293C112.374 140.536 112.84 140.658 113.415 140.658C114.042 140.658 114.543 140.528 114.918 140.268C115.293 140.004 115.48 139.682 115.48 139.303C115.48 138.996 115.365 138.738 115.135 138.529C114.909 138.32 114.562 138.163 114.093 138.056L112.431 137.692C111.515 137.483 110.837 137.151 110.398 136.695C109.964 136.239 109.746 135.661 109.746 134.962C109.746 134.383 109.908 133.876 110.232 133.441C110.556 133.006 111.004 132.668 111.575 132.425C112.146 132.178 112.8 132.054 113.537 132.054C114.598 132.054 115.433 132.284 116.043 132.744C116.652 133.2 117.055 133.812 117.251 134.579ZM118.914 142V132.182H120.825V142H118.914ZM119.879 130.667C119.547 130.667 119.261 130.556 119.023 130.335C118.788 130.109 118.671 129.84 118.671 129.529C118.671 129.214 118.788 128.945 119.023 128.724C119.261 128.498 119.547 128.385 119.879 128.385C120.211 128.385 120.495 128.498 120.729 128.724C120.968 128.945 121.087 129.214 121.087 129.529C121.087 129.84 120.968 130.109 120.729 130.335C120.495 130.556 120.211 130.667 119.879 130.667ZM126.902 142.198C125.981 142.198 125.178 141.987 124.492 141.565C123.806 141.143 123.273 140.553 122.894 139.795C122.515 139.036 122.325 138.15 122.325 137.136C122.325 136.117 122.515 135.227 122.894 134.464C123.273 133.701 123.806 133.109 124.492 132.687C125.178 132.265 125.981 132.054 126.902 132.054C127.822 132.054 128.626 132.265 129.312 132.687C129.998 133.109 130.53 133.701 130.91 134.464C131.289 135.227 131.479 136.117 131.479 137.136C131.479 138.15 131.289 139.036 130.91 139.795C130.53 140.553 129.998 141.143 129.312 141.565C128.626 141.987 127.822 142.198 126.902 142.198ZM126.908 140.594C127.505 140.594 127.999 140.436 128.391 140.121C128.783 139.805 129.073 139.386 129.261 138.862C129.452 138.337 129.548 137.76 129.548 137.129C129.548 136.503 129.452 135.928 129.261 135.403C129.073 134.875 128.783 134.451 128.391 134.131C127.999 133.812 127.505 133.652 126.908 133.652C126.307 133.652 125.809 133.812 125.413 134.131C125.021 134.451 124.729 134.875 124.537 135.403C124.349 135.928 124.256 136.503 124.256 137.129C124.256 137.76 124.349 138.337 124.537 138.862C124.729 139.386 125.021 139.805 125.413 140.121C125.809 140.436 126.307 140.594 126.908 140.594ZM134.893 136.17V142H132.982V132.182H134.817V133.78H134.938C135.164 133.26 135.518 132.842 135.999 132.527C136.485 132.212 137.096 132.054 137.834 132.054C138.503 132.054 139.089 132.195 139.591 132.476C140.094 132.753 140.484 133.166 140.761 133.716C141.038 134.266 141.177 134.945 141.177 135.755V142H139.265V135.985C139.265 135.273 139.08 134.717 138.709 134.317C138.339 133.912 137.829 133.71 137.182 133.71C136.738 133.71 136.344 133.805 135.999 133.997C135.658 134.189 135.388 134.47 135.187 134.841C134.991 135.207 134.893 135.651 134.893 136.17ZM145.967 142.217C145.345 142.217 144.782 142.102 144.28 141.872C143.777 141.638 143.378 141.299 143.084 140.856C142.794 140.413 142.65 139.869 142.65 139.226C142.65 138.672 142.756 138.216 142.969 137.858C143.182 137.5 143.47 137.217 143.832 137.008C144.194 136.799 144.599 136.641 145.047 136.535C145.494 136.428 145.95 136.347 146.414 136.292C147.003 136.224 147.48 136.168 147.846 136.126C148.213 136.079 148.479 136.004 148.645 135.902C148.812 135.8 148.895 135.634 148.895 135.403V135.359C148.895 134.8 148.737 134.368 148.422 134.061C148.111 133.754 147.646 133.601 147.028 133.601C146.385 133.601 145.878 133.744 145.507 134.029C145.14 134.31 144.887 134.624 144.746 134.969L142.95 134.56C143.163 133.963 143.474 133.482 143.883 133.115C144.297 132.744 144.772 132.476 145.309 132.31C145.846 132.139 146.41 132.054 147.003 132.054C147.395 132.054 147.81 132.101 148.249 132.195C148.692 132.284 149.106 132.45 149.489 132.693C149.877 132.936 150.194 133.283 150.441 133.735C150.689 134.183 150.812 134.764 150.812 135.48V142H148.946V140.658H148.869C148.745 140.905 148.56 141.148 148.313 141.386C148.066 141.625 147.748 141.823 147.361 141.981C146.973 142.138 146.508 142.217 145.967 142.217ZM146.383 140.683C146.911 140.683 147.363 140.579 147.738 140.37C148.117 140.161 148.405 139.888 148.601 139.552C148.801 139.211 148.901 138.847 148.901 138.459V137.193C148.833 137.261 148.701 137.325 148.505 137.385C148.313 137.44 148.093 137.489 147.846 137.532C147.599 137.57 147.358 137.607 147.124 137.641C146.89 137.67 146.694 137.696 146.536 137.717C146.165 137.764 145.826 137.843 145.52 137.954C145.217 138.065 144.974 138.224 144.791 138.433C144.612 138.638 144.522 138.911 144.522 139.251C144.522 139.724 144.697 140.082 145.047 140.325C145.396 140.564 145.841 140.683 146.383 140.683ZM154.639 128.909V142H152.728V128.909H154.639Z" fill="#D9D9D9"/>
<defs>
<clipPath id="clip0_2904_1952">
<rect width="24" height="24" fill="white" transform="translate(29 167)"/>
</clipPath>
</defs>
</svg>
