<svg xmlns="http://www.w3.org/2000/svg" width="152" height="152" viewBox="0 0 152 152" fill="none">
  <g filter="url(#filter0_d_4552_993)">
    <path d="M75.7485 120.519C100.27 120.519 120.525 100.27 120.525 75.7485C120.525 51.2491 100.242 31 75.7146 31C51.2213 31 31 51.2491 31 75.7485C31 100.27 51.2552 120.519 75.7485 120.519Z" fill="#343434" />
    <path d="M75.6193 76.5685C67.9739 76.5685 61.4525 73.5671 57.8273 65.7608C58.6486 65.3223 59.6735 65.1247 60.8036 65.1247H61.2733V62.9108C61.2733 54.8776 67.3827 49.0493 75.6193 49.0493C83.8621 49.0493 89.9437 54.8776 89.9437 62.9108V65.1247H90.4412C91.5991 65.1247 92.5962 65.3223 93.4175 65.7608C89.7862 73.5671 83.2647 76.5685 75.6193 76.5685ZM65.2026 65.1186H86.0423V62.9108C86.0423 57.1332 81.6128 52.9568 75.6193 52.9568C69.6043 52.9568 65.2026 57.1332 65.2026 62.9108V65.1186ZM52.1747 88.2368L54.1186 71.3584C54.2544 70.1916 54.5972 69.2658 55.1096 68.4697C58.7281 75.4302 64.4926 78.944 70.9617 80.0946V81.4718C70.9617 83.1367 71.8903 84.1331 73.5954 84.1331H77.6495C79.3545 84.1331 80.283 83.1367 80.283 81.4718V80.0946C86.7583 78.944 92.5229 75.4302 96.1413 68.4697C96.6416 69.2658 96.9905 70.1856 97.1201 71.3584L99.0701 88.2368C99.7488 94.0618 97.0664 97.3456 91.5965 97.3456H59.6423C54.1784 97.3456 51.4959 94.0618 52.1747 88.2368Z" fill="white" />
  </g>
  <defs>
    <filter id="filter0_d_4552_993" x="0.200001" y="0.200001" width="151.125" height="151.119" filterUnits="userSpaceOnUse" color-interpolation-filters="sRGB">
      <feFlood flood-opacity="0" result="BackgroundImageFix" />
      <feColorMatrix in="SourceAlpha" type="matrix" values="0 0 0 0 0 0 0 0 0 0 0 0 0 0 0 0 0 0 127 0" result="hardAlpha" />
      <feOffset />
      <feGaussianBlur stdDeviation="15.4" />
      <feComposite in2="hardAlpha" operator="out" />
      <feColorMatrix type="matrix" values="0 0 0 0 0 0 0 0 0 0 0 0 0 0 0 0 0 0 0.13 0" />
      <feBlend mode="normal" in2="BackgroundImageFix" result="effect1_dropShadow_4552_993" />
      <feBlend mode="normal" in="SourceGraphic" in2="effect1_dropShadow_4552_993" result="shape" />
    </filter>
  </defs>
</svg>