<svg width="28" height="38" viewBox="0 0 28 38" fill="none" xmlns="http://www.w3.org/2000/svg">
<path d="M7.32806 18.7057L2.04432 13.3681C2.01342 13.3369 1.99609 13.2947 1.99609 13.2508V1.33472C1.99609 1.18571 2.17668 1.11157 2.28139 1.21759L19.5493 18.7027C19.6135 18.7677 19.6134 18.8724 19.5489 18.9373L2.28102 36.3138C2.17616 36.4193 1.99609 36.345 1.99609 36.1963V24.6649C1.99609 24.6224 2.01232 24.5815 2.04147 24.5506L7.33091 18.9373C7.3925 18.872 7.39124 18.7696 7.32806 18.7057Z" fill="url(#paint0_linear_2734_1008)" stroke="url(#paint1_linear_2734_1008)" stroke-width="2.22254"/>
<path d="M26.8333 1.44411L26.8333 12.9755C26.8333 13.0179 26.817 13.0588 26.7879 13.0898L24.2273 15.8071C24.1633 15.8751 24.0559 15.8771 23.9892 15.8117L18.1183 10.0475C18.0523 9.98277 18.0517 9.87668 18.1169 9.8111L26.5483 1.32662C26.6532 1.2211 26.8333 1.29536 26.8333 1.44411Z" fill="white"/>
<path d="M26.8333 24.3896L26.8333 36.3057C26.8333 36.4547 26.6527 36.5288 26.548 36.4228L18.1143 27.883C18.0502 27.8181 18.0501 27.7137 18.1142 27.6488L23.9922 21.6907C24.0574 21.6246 24.164 21.6245 24.2293 21.6905L26.785 24.2723C26.8159 24.3035 26.8333 24.3456 26.8333 24.3896Z" fill="white"/>
<path d="M26.8333 1.44411L26.8333 12.9755C26.8333 13.0179 26.817 13.0588 26.7879 13.0898L24.2273 15.8071C24.1633 15.8751 24.0559 15.8771 23.9892 15.8117L18.1183 10.0475C18.0523 9.98277 18.0517 9.87668 18.1169 9.8111L26.5483 1.32662C26.6532 1.2211 26.8333 1.29536 26.8333 1.44411Z" stroke="white" stroke-width="2.22254"/>
<path d="M26.8333 24.3896L26.8333 36.3057C26.8333 36.4547 26.6527 36.5288 26.548 36.4228L18.1143 27.883C18.0502 27.8181 18.0501 27.7137 18.1142 27.6488L23.9922 21.6907C24.0574 21.6246 24.164 21.6245 24.2293 21.6905L26.785 24.2723C26.8159 24.3035 26.8333 24.3456 26.8333 24.3896Z" stroke="white" stroke-width="2.22254"/>
<defs>
<linearGradient id="paint0_linear_2734_1008" x1="19.6653" y1="18.8202" x2="1.99609" y2="18.8202" gradientUnits="userSpaceOnUse">
<stop stop-color="#FFEDDF"/>
<stop offset="1" stop-color="#654F2D"/>
</linearGradient>
<linearGradient id="paint1_linear_2734_1008" x1="19.6653" y1="18.8202" x2="1.99609" y2="18.8202" gradientUnits="userSpaceOnUse">
<stop stop-color="#FFEDDF"/>
<stop offset="1" stop-color="#654F2D"/>
</linearGradient>
</defs>
</svg>
