<svg width="98" height="40" viewBox="0 0 98 40" fill="none" xmlns="http://www.w3.org/2000/svg">
<path d="M85.935 37.469C85.935 37.9995 85.5049 38.4296 84.9744 38.4296H82.0512C81.5207 38.4296 81.0906 37.9995 81.0906 37.469V13.5884C81.0906 13.0579 81.5207 12.6278 82.0512 12.6278H84.7638C85.2943 12.6278 85.7244 13.0579 85.7244 13.5884V16.7167C85.7244 16.785 85.7797 16.8404 85.848 16.8404C85.9002 16.8404 85.9466 16.8075 85.965 16.7587C86.4666 15.4252 87.457 14.2939 88.9364 13.365C90.481 12.3821 91.9905 11.8906 93.4649 11.8906C94.4999 11.8906 95.4205 12.0051 96.2266 12.2339C96.7012 12.3687 96.9328 12.8808 96.7848 13.3514L95.8853 16.2104C95.7164 16.7475 95.1158 17.0358 94.559 16.9528C94.0557 16.8779 93.4453 16.8404 92.7277 16.8404C90.9023 16.8404 89.305 17.5776 87.936 19.0519C86.602 20.5263 85.935 22.2464 85.935 24.2123V37.469Z" fill="white"/>
<path d="M68.6246 39.2722C64.7982 39.2722 61.6213 37.9733 59.0937 35.3756C56.6013 32.7077 55.3551 29.4254 55.3551 25.5288C55.3551 21.562 56.6013 18.2797 59.0937 15.682C61.6213 13.0843 64.7982 11.7854 68.6246 11.7854C71.2574 11.7854 73.5568 12.4524 75.5226 13.7864C77.2333 14.9166 78.5718 16.4323 79.5382 18.3334C79.7796 18.8085 79.5453 19.3769 79.0533 19.5819L76.4039 20.6858C75.9163 20.8889 75.361 20.6572 75.1124 20.1912C73.6958 17.5361 71.4279 16.2086 68.3087 16.2086C66.0971 16.2086 64.1839 17.1037 62.5691 18.8941C60.9894 20.6844 60.1995 22.896 60.1995 25.5288C60.1995 28.1616 60.9894 30.3732 62.5691 32.1636C64.1839 33.9539 66.0971 34.849 68.3087 34.849C71.5297 34.849 73.8816 33.5163 75.3642 30.8508C75.6193 30.3924 76.1731 30.1699 76.6556 30.3758L79.2335 31.4762C79.7162 31.6822 79.9478 32.2397 79.7146 32.71C78.7666 34.6221 77.4044 36.16 75.6279 37.3239C73.627 38.6228 71.2925 39.2722 68.6246 39.2722Z" fill="white"/>
<path d="M31.2094 13.5885C31.2094 13.058 31.6394 12.6279 32.17 12.6279H34.8825C35.4131 12.6279 35.8431 13.058 35.8431 13.5885V16.0748C35.8431 16.1487 35.903 16.2086 35.9769 16.2086C36.0245 16.2086 36.0684 16.1833 36.0928 16.1424C36.8304 14.908 37.9407 13.8769 39.4238 13.0492C40.9684 12.2067 42.5656 11.7854 44.2156 11.7854C47.375 11.7854 49.7972 12.6981 51.4822 14.5236C53.2023 16.3139 54.0624 18.8765 54.0624 22.2114V37.4691C54.0624 37.9996 53.6323 38.4297 53.1018 38.4297H50.1786C49.648 38.4297 49.218 37.9996 49.218 37.4691V22.5274C49.1126 18.3148 46.9888 16.2086 42.8465 16.2086C40.9157 16.2086 39.3009 16.9984 38.0021 18.5781C36.7032 20.1227 36.0538 21.9833 36.0538 24.1597V37.4691C36.0538 37.9996 35.6237 38.4297 35.0932 38.4297H32.17C31.6394 38.4297 31.2094 37.9996 31.2094 37.4691V13.5885Z" fill="white"/>
<path d="M11.5805 30.5312C11.5805 31.795 12.1071 32.8481 13.1602 33.6906C14.2485 34.5331 15.5122 34.9544 16.9515 34.9544C18.9876 34.9544 20.7954 34.1996 22.3751 32.6901C23.8658 31.2967 24.6684 29.6789 24.783 27.8367C24.8013 27.5436 24.6653 27.2621 24.4229 27.0963C22.9464 26.0864 20.9649 25.5815 18.4785 25.5815C16.5127 25.5815 14.8628 26.0554 13.5288 27.0032C12.2299 27.951 11.5805 29.127 11.5805 30.5312ZM17.8467 11.7854C21.4273 11.7854 24.2532 12.7508 26.3244 14.6815C28.3956 16.5772 29.4311 19.1924 29.4311 22.5274V37.4691C29.4311 37.9996 29.0011 38.4297 28.4705 38.4297H25.758C25.2274 38.4297 24.7974 37.9996 24.7974 37.4691V34.9867C24.7974 34.9107 24.7357 34.849 24.6597 34.849C24.6141 34.849 24.5712 34.872 24.5454 34.9097C22.5491 37.818 19.8949 39.2722 16.5829 39.2722C13.7394 39.2722 11.3523 38.4297 9.42159 36.7447C7.52595 35.0597 6.57812 32.9534 6.57812 30.4259C6.57812 27.7579 7.5786 25.6341 9.57956 24.0544C11.6156 22.4747 14.3187 21.6849 17.6887 21.6849C20.0792 21.6849 22.1186 22.048 23.807 22.7743C24.2607 22.9694 24.7974 22.6526 24.7974 22.1588C24.7974 20.4738 24.1304 19.052 22.7964 17.8936C21.4624 16.7 19.9003 16.1033 18.1099 16.1033C15.7129 16.1033 13.7575 17.0005 12.2438 18.795C11.9123 19.188 11.3428 19.31 10.9076 19.036L8.27301 17.3771C7.80894 17.0849 7.6806 16.461 8.02865 16.0372C10.3565 13.2027 13.6292 11.7854 17.8467 11.7854Z" fill="white"/>
<path d="M4.07912 0.727539C4.60965 0.727539 5.03973 1.15762 5.03973 1.68815V37.4691C5.03973 37.9997 4.60965 38.4298 4.07912 38.4298H1.15593C0.625394 38.4298 0.195312 37.9997 0.195312 37.4691V1.68815C0.195312 1.15762 0.625394 0.727539 1.15593 0.727539H4.07912Z" fill="white"/>
</svg>
